<?xml version="1.0" encoding="utf-8"?>
<!-- Generator: Adobe Illustrator 22.0.1, SVG Export Plug-In . SVG Version: 6.00 Build 0)  -->
<svg version="1.1" id="Layer_1" xmlns="http://www.w3.org/2000/svg" xmlns:xlink="http://www.w3.org/1999/xlink" x="0px" y="0px"
	 viewBox="0 0 500 500" style="enable-background:new 0 0 500 500;" xml:space="preserve">
<style type="text/css">
	.st0{fill:#FFFFFF;}
</style>
<g>
	<g>
		<g>
			<path class="st0" d="M473.4,277L415,151.8c-1.7-3.5-5.4-5.6-9.3-5.2H356c-5.7,0-10.3,4.6-10.3,10.3c0,5.7,4.6,10.3,10.3,10.3
				h42.9l48.1,103.5h-59c-26.7-0.1-51.1,15.5-62.1,39.8c-8,16.8-24.9,27.4-43.5,27.4h-60c-18.6,0-35.5-10.7-43.5-27.4
				c-11-24.4-35.3-40-62.1-39.8H59l56.9-103.5H149c5.7,0,10.3-4.6,10.3-10.3s-4.6-10.3-10.3-10.3h-39.3c-3.7-0.4-7.4,1.5-9.3,4.7
				L32.1,276.5c-1.2,1.1-1.9,2.5-2.1,4.1v128.8c0.8,29,24.3,52.2,53.3,52.8h338.4c29-0.5,52.5-23.8,53.3-52.8V280.6
				C474.8,279.3,474.3,278,473.4,277z M454.3,409.5c-0.8,17.6-15,31.6-32.6,32.1H83.3C65.7,441,51.5,427,50.7,409.5v-118h66.2
				c18.6,0,35.5,10.7,43.5,27.4c11,24.4,35.3,40,62.1,39.8h60c26.7,0.1,51.1-15.5,62.1-39.8c8-16.8,24.9-27.4,43.5-27.4h66.2
				L454.3,409.5L454.3,409.5z"/>
			<path class="st0" d="M245.3,278.5c3.7,4,9.9,4.3,13.9,0.6c0.2-0.2,0.4-0.4,0.6-0.6l70.4-70.9c3.4-4.6,2.5-11.1-2.1-14.5
				c-3.7-2.8-8.7-2.8-12.4,0l-52.8,52.8V49.3c0-5.7-4.6-10.3-10.3-10.3c-5.7,0-10.3,4.6-10.3,10.3v196.6l-52.8-52.8
				c-4.6-3.4-11.1-2.5-14.5,2.1c-2.8,3.7-2.8,8.7,0,12.4L245.3,278.5z"/>
		</g>
	</g>
</g>
</svg>
