<?xml version="1.0" encoding="utf-8"?>
<!-- Generator: Adobe Illustrator 22.0.1, SVG Export Plug-In . SVG Version: 6.00 Build 0)  -->
<svg version="1.1" id="Layer_1" xmlns="http://www.w3.org/2000/svg" xmlns:xlink="http://www.w3.org/1999/xlink" x="0px" y="0px"
	 viewBox="0 0 500 500" style="enable-background:new 0 0 500 500;" xml:space="preserve">
<style type="text/css">
	.st0{fill:#FFFFFF;}
</style>
<g>
	<g>
		<path class="st0" d="M465.6,376.6H33.4c-6.3,0-11.4,5.1-11.4,11.4s5.1,11.4,11.4,11.4h432.3c6.3,0,11.4-5.1,11.4-11.4
			C477,381.7,471.9,376.6,465.6,376.6z"/>
	</g>
</g>
<g>
	<g>
		<path class="st0" d="M454.3,92.2H386c-6.3,0-11.4,5.1-11.4,11.4c0,6.3,5.1,11.4,11.4,11.4h38.6L227.2,292.6l-83.4-83.4
			c-4.4-4.4-11.6-4.4-16.1,0l-91,91c-4.4,4.4-4.4,11.6,0,16.1c2.2,2.2,5.1,3.3,8,3.3s5.8-1.1,8-3.3l83-83l83,83
			c4.3,4.3,11.2,4.4,15.7,0.4l208.5-187.7v42.7c0,6.3,5.1,11.4,11.4,11.4s11.4-5.1,11.4-11.4v-68.3
			C465.6,97.3,460.5,92.2,454.3,92.2z"/>
	</g>
</g>
</svg>
