<?xml version="1.0" encoding="iso-8859-1"?>
<!-- Generator: Adobe Illustrator 19.0.0, SVG Export Plug-In . SVG Version: 6.00 Build 0)  -->
<svg version="1.1" id="Capa_1" xmlns="http://www.w3.org/2000/svg" xmlns:xlink="http://www.w3.org/1999/xlink" x="0px" y="0px"
	 viewBox="0 0 512 512" style="enable-background:new 0 0 512 512;" xml:space="preserve">
<g>
	<g>
		<path d="M256,0C140.949,0,18.667,31.787,18.667,90.667c0,16.256,9.579,30.379,25.515,42.411c0.384,0.704,0.683,1.451,1.237,2.091
			l167.915,185.579v180.587c0,4.309,2.603,8.213,6.592,9.856c1.323,0.555,2.709,0.811,4.075,0.811c2.773,0,5.504-1.088,7.509-3.115
			l64-64c1.984-2.005,3.115-4.715,3.115-7.552V320.747l167.915-185.579c0.555-0.619,0.832-1.344,1.216-2.027
			c15.979-12.053,25.579-26.176,25.579-42.475C493.333,31.787,371.051,0,256,0z M280.064,309.483
			c-1.771,1.941-2.752,4.501-2.752,7.147v116.288l-42.667,42.667V316.629c0-2.645-0.981-5.184-2.752-7.147L95.189,158.379
			c44.821,15.104,103.701,22.955,160.811,22.955c57.088,0,115.925-7.851,160.747-22.933L280.064,309.483z M256,160
			c-127.296,0-216-36.544-216-69.333c0-32.789,88.704-69.333,216-69.333s216,36.544,216,69.333C472,123.456,383.296,160,256,160z"/>
	</g>
</g>
<g>
</g>
<g>
</g>
<g>
</g>
<g>
</g>
<g>
</g>
<g>
</g>
<g>
</g>
<g>
</g>
<g>
</g>
<g>
</g>
<g>
</g>
<g>
</g>
<g>
</g>
<g>
</g>
<g>
</g>
</svg>
